<svg width="15" height="15" viewBox="0 0 15 15" fill="none" xmlns="http://www.w3.org/2000/svg">
<path opacity="0.4" d="M11.2483 4.475C11.2108 4.46875 11.1671 4.46875 11.1296 4.475C10.2671 4.44375 9.57959 3.7375 9.57959 2.8625C9.57959 1.96875 10.2983 1.25 11.1921 1.25C12.0858 1.25 12.8046 1.975 12.8046 2.8625C12.7983 3.7375 12.1108 4.44375 11.2483 4.475Z" stroke="#0E7A60" stroke-width="0.9375" stroke-linecap="round" stroke-linejoin="round"/>
<path opacity="0.4" d="M10.6047 9.02498C11.4609 9.16873 12.4047 9.01873 13.0672 8.57498C13.9484 7.98748 13.9484 7.02498 13.0672 6.43748C12.3984 5.99373 11.4422 5.84373 10.5859 5.99373" stroke="#0E7A60" stroke-width="0.9375" stroke-linecap="round" stroke-linejoin="round"/>
<path opacity="0.4" d="M3.72959 4.475C3.76709 4.46875 3.81084 4.46875 3.84834 4.475C4.71084 4.44375 5.39834 3.7375 5.39834 2.8625C5.39834 1.96875 4.67959 1.25 3.78584 1.25C2.89209 1.25 2.17334 1.975 2.17334 2.8625C2.17959 3.7375 2.86709 4.44375 3.72959 4.475Z" stroke="#0E7A60" stroke-width="0.9375" stroke-linecap="round" stroke-linejoin="round"/>
<path opacity="0.4" d="M4.37344 9.02498C3.51719 9.16873 2.57344 9.01873 1.91094 8.57498C1.02969 7.98748 1.02969 7.02498 1.91094 6.43748C2.57969 5.99373 3.53594 5.84373 4.39219 5.99373" stroke="#0E7A60" stroke-width="0.9375" stroke-linecap="round" stroke-linejoin="round"/>
<path d="M7.50029 9.1437C7.46279 9.13745 7.41904 9.13745 7.38154 9.1437C6.51904 9.11245 5.83154 8.4062 5.83154 7.5312C5.83154 6.63745 6.55029 5.9187 7.44404 5.9187C8.33779 5.9187 9.05654 6.6437 9.05654 7.5312C9.05029 8.4062 8.36279 9.1187 7.50029 9.1437Z" stroke="#0E7A60" stroke-width="0.9375" stroke-linecap="round" stroke-linejoin="round"/>
<path d="M5.68145 11.1125C4.8002 11.7 4.8002 12.6625 5.68145 13.25C6.68145 13.9187 8.31894 13.9187 9.31894 13.25C10.2002 12.6625 10.2002 11.7 9.31894 11.1125C8.32519 10.45 6.68145 10.45 5.68145 11.1125Z" stroke="#0E7A60" stroke-width="0.9375" stroke-linecap="round" stroke-linejoin="round"/>
</svg>
