<svg width="28" height="29" viewBox="0 0 28 29" fill="none" xmlns="http://www.w3.org/2000/svg">
<path d="M25.2763 12.2477H24.35V12.2H14V16.8H20.4992C19.5511 19.4778 17.0032 21.4 14 21.4C10.1895 21.4 7.1 18.3105 7.1 14.5C7.1 10.6895 10.1895 7.6 14 7.6C15.7589 7.6 17.3591 8.26355 18.5776 9.34742L21.8303 6.09465C19.7764 4.18047 17.0291 3 14 3C7.64912 3 2.5 8.14912 2.5 14.5C2.5 20.8509 7.64912 26 14 26C20.3509 26 25.5 20.8509 25.5 14.5C25.5 13.7289 25.4207 12.9762 25.2763 12.2477Z" fill="#FFC107"/>
<path d="M3.82593 9.14732L7.60425 11.9182C8.6266 9.3871 11.1026 7.6 14 7.6C15.7589 7.6 17.3591 8.26355 18.5776 9.34742L21.8303 6.09465C19.7764 4.18047 17.0291 3 14 3C9.58283 3 5.75218 5.49377 3.82593 9.14732Z" fill="#FF3D00"/>
<path d="M13.9998 26C16.9703 26 19.6693 24.8632 21.71 23.0146L18.1508 20.0028C16.9574 20.9103 15.4991 21.4012 13.9998 21.4C11.0087 21.4 8.46891 19.4927 7.51211 16.8311L3.76196 19.7204C5.66521 23.4447 9.53036 26 13.9998 26Z" fill="#4CAF50"/>
<path d="M25.2763 12.2477H24.35V12.2H14V16.8H20.4992C20.0457 18.0744 19.2287 19.188 18.1492 20.0033L18.1509 20.0021L21.7102 23.014C21.4583 23.2428 25.5 20.25 25.5 14.5C25.5 13.7289 25.4206 12.9762 25.2763 12.2477Z" fill="#1976D2"/>
</svg>
