<svg width="20" height="23" viewBox="0 0 20 23" fill="none" xmlns="http://www.w3.org/2000/svg">
<path fill-rule="evenodd" clip-rule="evenodd" d="M18.8449 7.8682C17.7067 6.44984 16.1098 5.62929 14.6023 5.62929C12.6079 5.62929 11.7653 6.5768 10.3817 6.5768C8.95558 6.5768 7.87118 5.63067 6.14618 5.63067C4.45182 5.63067 2.65036 6.65987 1.50828 8.41882C-0.0988719 10.8923 0.173264 15.5462 2.77926 19.5121C3.71131 20.9302 4.95607 22.5249 6.58364 22.5401C8.03016 22.5533 8.43946 21.6174 10.4021 21.6064C12.365 21.5956 12.7362 22.5503 14.1825 22.5368C15.81 22.5213 17.1232 20.7555 18.0547 19.3371C18.7224 18.3211 18.9711 17.8078 19.4897 16.6594C15.722 15.2357 15.1162 9.91198 18.8449 7.8682Z" fill="#333333"/>
<path fill-rule="evenodd" clip-rule="evenodd" d="M13.0895 4.04473C13.814 3.11516 14.3643 1.80195 14.1645 0.460037C12.981 0.541733 11.5966 1.29439 10.7885 2.27612C10.0548 3.16705 9.44903 4.48826 9.68473 5.77248C10.9767 5.8125 12.3136 5.04053 13.0895 4.04473Z" fill="#333333"/>
</svg>
