<svg width="20" height="23" viewBox="0 0 20 23" fill="none" xmlns="http://www.w3.org/2000/svg">
<path fill-rule="evenodd" clip-rule="evenodd" d="M18.8449 7.86806C17.7067 6.4497 16.1098 5.62915 14.6023 5.62915C12.6079 5.62915 11.7653 6.57666 10.3817 6.57666C8.95558 6.57666 7.87118 5.63053 6.14618 5.63053C4.45182 5.63053 2.65036 6.65973 1.50828 8.41868C-0.0988719 10.8922 0.173264 15.5461 2.77926 19.5119C3.71131 20.93 4.95607 22.5248 6.58364 22.5399C8.03016 22.5532 8.43946 21.6173 10.4021 21.6062C12.365 21.5955 12.7362 22.5502 14.1825 22.5366C15.81 22.5212 17.1232 20.7553 18.0547 19.337C18.7224 18.321 18.9711 17.8077 19.4897 16.6592C15.722 15.2356 15.1162 9.91184 18.8449 7.86806Z" fill="#333333"/>
<path fill-rule="evenodd" clip-rule="evenodd" d="M13.0895 4.04465C13.814 3.11508 14.3643 1.80187 14.1645 0.459961C12.981 0.541657 11.5966 1.29431 10.7885 2.27604C10.0548 3.16697 9.44903 4.48818 9.68473 5.77241C10.9767 5.81243 12.3136 5.04046 13.0895 4.04465Z" fill="#333333"/>
</svg>
