<svg width="24" height="24" viewBox="0 0 24 24" fill="none" xmlns="http://www.w3.org/2000/svg">
<path d="M21 11V11.5H21.5V11H21ZM3 11H2.5V11.5H3V11ZM8.5 3C8.5 2.72386 8.27614 2.5 8 2.5C7.72386 2.5 7.5 2.72386 7.5 3L8 3L8.5 3ZM7.5 7C7.5 7.27614 7.72386 7.5 8 7.5C8.27614 7.5 8.5 7.27614 8.5 7H8H7.5ZM16.5 3C16.5 2.72386 16.2761 2.5 16 2.5C15.7239 2.5 15.5 2.72386 15.5 3L16 3L16.5 3ZM15.5 7C15.5 7.27614 15.7239 7.5 16 7.5C16.2761 7.5 16.5 7.27614 16.5 7H16H15.5ZM7 6V6.5H17V6V5.5H7V6ZM21 10H20.5V11H21H21.5V10H21ZM21 11V10.5H3V11V11.5H21V11ZM3 11H3.5V10H3H2.5V11H3ZM17 6V6.5C17.9569 6.5 18.6244 6.50106 19.1279 6.56876C19.6171 6.63453 19.8762 6.75483 20.0607 6.93934L20.4142 6.58579L20.7678 6.23223C20.3665 5.83096 19.8612 5.65836 19.2612 5.57768C18.6755 5.49894 17.9287 5.5 17 5.5V6ZM21 10H21.5C21.5 9.07133 21.5011 8.32452 21.4223 7.73883C21.3416 7.13876 21.169 6.63351 20.7678 6.23223L20.4142 6.58579L20.0607 6.93934C20.2452 7.12385 20.3655 7.3829 20.4312 7.87208C20.4989 8.37565 20.5 9.04306 20.5 10H21ZM7 6V5.5C6.07133 5.5 5.32452 5.49894 4.73883 5.57768C4.13876 5.65836 3.63351 5.83096 3.23223 6.23223L3.58579 6.58579L3.93934 6.93934C4.12385 6.75483 4.3829 6.63453 4.87208 6.56876C5.37565 6.50106 6.04306 6.5 7 6.5V6ZM3 10H3.5C3.5 9.04306 3.50106 8.37565 3.56876 7.87208C3.63453 7.3829 3.75483 7.12385 3.93934 6.93934L3.58579 6.58579L3.23223 6.23223C2.83096 6.63351 2.65836 7.13876 2.57768 7.73883C2.49894 8.32452 2.5 9.07133 2.5 10H3ZM21 10H20.5V17H21H21.5V10H21ZM17 21V20.5H7V21V21.5H17V21ZM3 17H3.5V10H3H2.5V17H3ZM7 21V20.5C6.04306 20.5 5.37565 20.4989 4.87208 20.4312C4.3829 20.3655 4.12385 20.2452 3.93934 20.0607L3.58579 20.4142L3.23223 20.7678C3.63351 21.169 4.13876 21.3416 4.73883 21.4223C5.32452 21.5011 6.07133 21.5 7 21.5V21ZM3 17H2.5C2.5 17.9287 2.49894 18.6755 2.57768 19.2612C2.65836 19.8612 2.83096 20.3665 3.23223 20.7678L3.58579 20.4142L3.93934 20.0607C3.75483 19.8762 3.63453 19.6171 3.56876 19.1279C3.50106 18.6244 3.5 17.9569 3.5 17H3ZM21 17H20.5C20.5 17.9569 20.4989 18.6244 20.4312 19.1279C20.3655 19.6171 20.2452 19.8762 20.0607 20.0607L20.4142 20.4142L20.7678 20.7678C21.169 20.3665 21.3416 19.8612 21.4223 19.2612C21.5011 18.6755 21.5 17.9287 21.5 17H21ZM17 21V21.5C17.9287 21.5 18.6755 21.5011 19.2612 21.4223C19.8612 21.3416 20.3665 21.169 20.7678 20.7678L20.4142 20.4142L20.0607 20.0607C19.8762 20.2452 19.6171 20.3655 19.1279 20.4312C18.6244 20.4989 17.9569 20.5 17 20.5V21ZM8 3L7.5 3L7.5 7H8H8.5L8.5 3L8 3ZM16 3L15.5 3L15.5 7H16H16.5L16.5 3L16 3Z" fill="black"/>
</svg>
