<svg width="48" height="48" viewBox="0 0 48 48" fill="none" xmlns="http://www.w3.org/2000/svg">
<path fill-rule="evenodd" clip-rule="evenodd" d="M14.9999 12C14.9999 7.02944 19.0294 3 23.9999 3C28.9705 3 32.9999 7.02944 32.9999 12C32.9999 16.9706 28.9705 21 23.9999 21C19.0294 21 14.9999 16.9706 14.9999 12Z" fill="#0B87AC"/>
<path fill-rule="evenodd" clip-rule="evenodd" d="M7.50242 40.2107C7.6571 31.2311 14.9839 24 23.9999 24C33.0162 24 40.3431 31.2315 40.4975 40.2113C40.5077 40.8068 40.1646 41.352 39.6232 41.6004C34.8654 43.7836 29.573 45 24.0006 45C18.4276 45 13.1348 43.7834 8.37657 41.5998C7.83523 41.3514 7.49216 40.8062 7.50242 40.2107Z" fill="#0B87AC"/>
</svg>
